<svg width="32" height="32" viewBox="0 0 32 32" fill="none" xmlns="http://www.w3.org/2000/svg">
<mask id="mask0_1357_310" style="mask-type:alpha" maskUnits="userSpaceOnUse" x="0" y="0" width="32" height="32">
<circle cx="16" cy="16" r="16" fill="#FFAF00"/>
</mask>
<g mask="url(#mask0_1357_310)">
<path d="M6.98024 29.9097C4.98768 19.8218 8.27579 7.4449 9.57134 6.71939C10.1543 6.39292 11.5794 8.55056 12.6806 10.1052H19.8709C20.5835 9.32788 21.8531 6.86635 22.5268 6.86635C23.3689 6.86635 23.9519 15.4817 23.5632 17.8785C23.3675 19.0858 22.1381 20.923 21.879 21.2469C23.5632 22.6072 27.2556 26.8825 27.2556 28.6315" stroke="#202454" stroke-width="1.14286"/>
<ellipse cx="13.0693" cy="15.316" rx="0.647773" ry="0.935672" fill="#202454"/>
<ellipse cx="19.1588" cy="15.316" rx="0.647773" ry="0.935672" fill="#202454"/>
<path d="M16.7801 17.8131C16.6821 17.932 16.542 17.9901 16.4028 17.9885C16.2592 17.9868 16.1165 17.9216 16.0218 17.794C15.8791 17.6017 15.9059 17.3612 16.0365 17.201C16.1231 17.0948 16.2553 17.0239 16.414 17.0257C16.5781 17.0277 16.7116 17.1063 16.7952 17.22C16.9174 17.3864 16.9327 17.6277 16.7801 17.8131Z" fill="#202454" stroke="#202454" stroke-width="3.30622"/>
<line x1="4.59545" y1="15.2391" x2="9.38897" y2="15.8869" stroke="#202454" stroke-width="1.14286"/>
<path d="M9.59737 18.2016L3.11963 18.8494" stroke="#202454" stroke-width="1.14286"/>
<line x1="21.8064" y1="15.8866" x2="25.8226" y2="15.3684" stroke="#202454" stroke-width="1.14286"/>
<path d="M21.6747 18.2069L27.116 18.9843" stroke="#202454" stroke-width="1.14286"/>
</g>
</svg>
