<svg width="17" height="23" viewBox="0 0 17 23" fill="none" xmlns="http://www.w3.org/2000/svg">
<g clip-path="url(#clip0_1358_1741)">
<path d="M8.55179 16.8412H11.2077L7.78405 20.2649L9.62039 22.1012L16.2084 15.5133L16.1669 15.4718L16.2084 15.4303L9.63076 8.85265L7.79443 10.689L11.353 14.2475H8.55179C5.4186 14.2475 2.8664 11.6953 2.8664 8.56216C2.8664 5.42897 5.4186 2.8664 8.55179 2.8664C11.685 2.8664 14.2372 5.4186 14.2372 8.55178H16.8309C16.8309 3.98688 13.1167 0.272705 8.55179 0.272705C3.98688 0.272705 0.272705 3.98688 0.272705 8.55178C0.272705 13.1167 3.98688 16.8412 8.55179 16.8412Z" fill="white"/>
</g>
<defs>
<clipPath id="clip0_1358_1741">
<rect width="16.5685" height="21.8182" fill="white" transform="translate(0.272705 0.272705)"/>
</clipPath>
</defs>
</svg>
