<svg width="32" height="32" viewBox="0 0 32 32" fill="none" xmlns="http://www.w3.org/2000/svg">
<mask id="mask0_1357_333" style="mask-type:alpha" maskUnits="userSpaceOnUse" x="0" y="0" width="32" height="32">
<circle cx="16" cy="16" r="16" fill="#FFAF00"/>
</mask>
<g mask="url(#mask0_1357_333)">
<g opacity="0.9">
<ellipse cx="19.1091" cy="20.6097" rx="0.647773" ry="0.935672" fill="#202454"/>
<path d="M9.06863 31.3988C9.06863 26.7823 11.7893 18.3137 11.7893 18.3137C6.80142 15.2873 6.66348 6.65381 7.38442 6.65381C9.78118 6.65382 15.9998 10.4217 16.518 15.0749C16.5395 15.268 26.0403 16.1761 25.7812 21.3583C25.7668 21.6462 25.7136 21.9272 25.6272 22.2004M18.7204 27.6417C19.3218 27.4793 20.4926 27.1863 21.3115 26.7823M21.3115 26.7823C21.657 28.1268 21.8427 30.9583 21.8945 31.5284M21.3115 26.7823C23.1549 25.8727 25.0548 24.0119 25.6272 22.2004M25.6272 22.2004C25.657 21.8765 24.8095 21.4986 23.5787 21.2288" stroke="#202454" stroke-width="1.14286"/>
<path d="M19.4329 15.7873C20.6637 11.2529 16.4298 6.03529 15.9349 6.20027C15.5462 6.32986 14.4559 7.97786 13.9822 10.3461" stroke="#202454" stroke-width="1.14286"/>
</g>
</g>
</svg>
