<svg width="16" height="16" viewBox="0 0 16 16" fill="none" xmlns="http://www.w3.org/2000/svg">
<path d="M8.00001 14.6667C4.31801 14.6667 1.33334 11.682 1.33334 8.00004C1.33334 4.31804 4.31801 1.33337 8.00001 1.33337C11.682 1.33337 14.6667 4.31804 14.6667 8.00004C14.6667 11.682 11.682 14.6667 8.00001 14.6667ZM8.00001 13.3334C9.4145 13.3334 10.7711 12.7715 11.7712 11.7713C12.7714 10.7711 13.3333 9.41453 13.3333 8.00004C13.3333 6.58555 12.7714 5.229 11.7712 4.2288C10.7711 3.22861 9.4145 2.66671 8.00001 2.66671C6.58552 2.66671 5.22897 3.22861 4.22877 4.2288C3.22858 5.229 2.66668 6.58555 2.66668 8.00004C2.66668 9.41453 3.22858 10.7711 4.22877 11.7713C5.22897 12.7715 6.58552 13.3334 8.00001 13.3334ZM7.33334 10H8.66668V11.3334H7.33334V10ZM8.66668 8.90337V9.33337H7.33334V8.33337C7.33334 8.15656 7.40358 7.98699 7.52861 7.86197C7.65363 7.73695 7.8232 7.66671 8.00001 7.66671C8.1894 7.6667 8.37488 7.6129 8.53489 7.51159C8.6949 7.41028 8.82285 7.26562 8.90386 7.09443C8.98486 6.92324 9.01559 6.73257 8.99247 6.5446C8.96934 6.35663 8.89331 6.1791 8.77323 6.03265C8.65315 5.8862 8.49395 5.77686 8.31416 5.71735C8.13436 5.65785 7.94137 5.65062 7.75763 5.69651C7.57389 5.7424 7.40695 5.83953 7.27625 5.97658C7.14556 6.11364 7.05646 6.285 7.01934 6.47071L5.71134 6.20871C5.79243 5.80343 5.97968 5.42695 6.25396 5.11776C6.52823 4.80858 6.87969 4.57776 7.2724 4.44892C7.66512 4.32008 8.085 4.29783 8.48913 4.38445C8.89326 4.47107 9.26714 4.66345 9.57256 4.94192C9.87797 5.2204 10.104 5.57498 10.2274 5.96942C10.3509 6.36385 10.3674 6.784 10.2753 7.18691C10.1831 7.58982 9.98565 7.96104 9.70302 8.26262C9.4204 8.56419 9.06277 8.78531 8.66668 8.90337Z" fill="white"/>
</svg>
